# xmcd
#
# Track frame offsets: 
#        150
#        15772
#        29812
#        44770
#        61087
#        74485
#        88552
#        104245
#        118472
#        131877
#        147662
#        161817
#        176040
#        190590
#        205605
#        221955
#        238005
#        252730
#        268497
#
# Disc length: 3747 seconds
#
# Revision: 8
# Processed by: cddbd v1.5.2PL0 Copyright (c) Steve Scherf et al.
# Submitted via: ExactAudioCopyFreeDBPlugin 1.0
#
DISCID=3e0ea113
DTITLE=Bessie Smith - The Complete Recordings, Vol. 1
DYEAR=1991
DGENRE=Blues
TTITLE0=Down Hearted Blues
TTITLE1=Gulf Coast Blues
TTITLE2=Aggravatin' Papa
TTITLE3=Beale Street Mama
TTITLE4=Baby Won't You Please Come Home
TTITLE5=Oh Daddy Blues
TTITLE6='Tain't Nobody's Bizness If I Do
TTITLE7=Keeps On A-Rainin' (Papa, He Can't Make No Time)
TTITLE8=Mama's Got the Blues
TTITLE9=Outside of That
TTITLE10=Bleeding Hearted Blues
TTITLE11=Lady Luck Blues
TTITLE12=Yodling Blues
TTITLE13=Midnight Blues
TTITLE14=If You Don't, I Know Who Will
TTITLE15=Nobody in Town Can Bake a Sweet Jelly Roll Like Mine
TTITLE16=Jail-House Blues
TTITLE17=St. Louis Gal
TTITLE18=Sam Jones Blues
EXTD=YEAR: 1991
EXTT0=
EXTT1=
EXTT2=
EXTT3=
EXTT4=
EXTT5=
EXTT6=
EXTT7=
EXTT8=
EXTT9=
EXTT10=
EXTT11=
EXTT12=
EXTT13=
EXTT14=
EXTT15=
EXTT16=
EXTT17=
EXTT18=
PLAYORDER=
